name ./resultDataOpenSim/trcMotMarkerGrf/sub09/grf-02-04.mot
datacolumns 19
datarows 17
range 0.46000000 0.52400000
endheader

                time	     ground_force_vx	     ground_force_vy	     ground_force_vz	     ground_force_px	     ground_force_py	     ground_force_pz	   l_ground_force_vx	   l_ground_force_vy	   l_ground_force_vz	   l_ground_force_px	   l_ground_force_py	   l_ground_force_pz	     ground_torque_x	     ground_torque_y	     ground_torque_z	   l_ground_torque_x	   l_ground_torque_y	   l_ground_torque_z	
          0.46000000	         40.58276939	        406.58956248	        -16.84631207	         -0.67528081	          0.00000000	          0.08204820	          0.00000000	          0.00000000	          0.00000000	          0.00000000	          0.00000000	          0.00000000	          0.00000000	          5.70083349	          0.00000000	          0.00000000	          0.00000000	          0.00000000	
          0.46400000	         43.40214437	        418.04809331	        -20.32875645	         -0.67206006	          0.00000000	          0.08331043	          0.00000000	          0.00000000	          0.00000000	          0.00000000	          0.00000000	          0.00000000	          0.00000000	          5.67567018	          0.00000000	          0.00000000	          0.00000000	          0.00000000	
          0.46800000	         46.48767202	        430.24381999	        -23.27899330	         -0.66884436	          0.00000000	          0.08451562	          0.00000000	          0.00000000	          0.00000000	          0.00000000	          0.00000000	          0.00000000	          0.00000000	          5.73107623	          0.00000000	          0.00000000	          0.00000000	          0.00000000	
          0.47200000	         49.68577983	        443.23268147	        -25.50452801	         -0.66565014	          0.00000000	          0.08562619	          0.00000000	          0.00000000	          0.00000000	          0.00000000	          0.00000000	          0.00000000	          0.00000000	          5.89490639	          0.00000000	          0.00000000	          0.00000000	          0.00000000	
          0.47600000	         52.84579731	        457.01166375	        -26.95239058	         -0.66247862	          0.00000000	          0.08661876	          0.00000000	          0.00000000	          0.00000000	          0.00000000	          0.00000000	          0.00000000	          0.00000000	          6.17211180	          0.00000000	          0.00000000	          0.00000000	          0.00000000	
          0.48000000	         55.86665501	        471.54856522	        -27.72895862	         -0.65932697	          0.00000000	          0.08748726	          0.00000000	          0.00000000	          0.00000000	          0.00000000	          0.00000000	          0.00000000	          0.00000000	          6.54083768	          0.00000000	          0.00000000	          0.00000000	          0.00000000	
          0.48400000	         58.72685193	        486.82816739	        -28.08438761	         -0.65619350	          0.00000000	          0.08823822	          0.00000000	          0.00000000	          0.00000000	          0.00000000	          0.00000000	          0.00000000	          0.00000000	          6.95436710	          0.00000000	          0.00000000	          0.00000000	          0.00000000	
          0.48800000	         61.49257361	        502.87980643	        -28.36351381	         -0.65310050	          0.00000000	          0.08888552	          0.00000000	          0.00000000	          0.00000000	          0.00000000	          0.00000000	          0.00000000	          0.00000000	          7.34889598	          0.00000000	          0.00000000	          0.00000000	          0.00000000	
          0.49200000	         64.29766238	        519.76537789	        -28.93373725	         -0.65010145	          0.00000000	          0.08944366	          0.00000000	          0.00000000	          0.00000000	          0.00000000	          0.00000000	          0.00000000	          0.00000000	          7.65589255	          0.00000000	          0.00000000	          0.00000000	          0.00000000	
          0.49600000	         67.29952329	        537.53982693	        -30.10104588	         -0.64724259	          0.00000000	          0.08992057	          0.00000000	          0.00000000	          0.00000000	          0.00000000	          0.00000000	          0.00000000	          0.00000000	          7.81670630	          0.00000000	          0.00000000	          0.00000000	          0.00000000	
          0.50000000	         70.62449329	        556.21219092	        -32.02397129	         -0.64455265	          0.00000000	          0.09031508	          0.00000000	          0.00000000	          0.00000000	          0.00000000	          0.00000000	          0.00000000	          0.00000000	          7.79635599	          0.00000000	          0.00000000	          0.00000000	          0.00000000	
          0.50400000	         74.32223625	        575.71395828	        -34.63996595	         -0.64205722	          0.00000000	          0.09060767	          0.00000000	          0.00000000	          0.00000000	          0.00000000	          0.00000000	          0.00000000	          0.00000000	          7.59320868	          0.00000000	          0.00000000	          0.00000000	          0.00000000	
          0.50800000	         78.34553221	        595.88699156	        -37.63602616	         -0.63975572	          0.00000000	          0.09076911	          0.00000000	          0.00000000	          0.00000000	          0.00000000	          0.00000000	          0.00000000	          0.00000000	          7.24174238	          0.00000000	          0.00000000	          0.00000000	          0.00000000	
          0.51200000	         82.56403211	        616.51261631	        -40.50732783	         -0.63764606	          0.00000000	          0.09075716	          0.00000000	          0.00000000	          0.00000000	          0.00000000	          0.00000000	          0.00000000	          0.00000000	          6.80708983	          0.00000000	          0.00000000	          0.00000000	          0.00000000	
          0.51600000	         86.81534650	        637.35574191	        -42.70782988	         -0.63570890	          0.00000000	          0.09054839	          0.00000000	          0.00000000	          0.00000000	          0.00000000	          0.00000000	          0.00000000	          0.00000000	          6.37231401	          0.00000000	          0.00000000	          0.00000000	          0.00000000	
          0.52000000	         90.97975231	        658.18642553	        -43.81382837	         -0.63392146	          0.00000000	          0.09015050	          0.00000000	          0.00000000	          0.00000000	          0.00000000	          0.00000000	          0.00000000	          0.00000000	          6.02129155	          0.00000000	          0.00000000	          0.00000000	          0.00000000	
          0.52400000	         95.04286602	        678.79032832	        -43.60595699	         -0.63227500	          0.00000000	          0.08959881	          0.00000000	          0.00000000	          0.00000000	          0.00000000	          0.00000000	          0.00000000	          0.00000000	          5.82097054	          0.00000000	          0.00000000	          0.00000000	          0.00000000	
